<?xml version="1.0" encoding="utf-8"?>
<!-- Generator: Adobe Illustrator 24.0.1, SVG Export Plug-In . SVG Version: 6.00 Build 0)  -->
<svg version="1.1" id="Layer_1" xmlns="http://www.w3.org/2000/svg" xmlns:xlink="http://www.w3.org/1999/xlink" x="0px" y="0px" width="72px" height="72px" viewBox="0 0 72 72" enable-background="new 0 0 72 72" xml:space="preserve">
    <path fill="none" d="M0.28,8.36c0-4.42,3.58-8,8-8h56c4.42,0,8,3.58,8,8v56c0,4.42-3.58,8-8,8h-56c-4.42,0-8-3.58-8-8
	C0.28,64.36,0.28,8.36,0.28,8.36z"></path>
    <path fill="#5E6369" d="M0,8c0-4.42,3.58-8,8-8h56c4.42,0,8,3.58,8,8v56c0,4.42-3.58,8-8,8H8c-4.42,0-8-3.58-8-8V8z"></path>
    <path fill="#8AB4F8" d="M60.3,30.91l-10.8,2.4l-2-9l10.8-2.4c0.8-0.2,1.8,0.2,2.2,1c0.4,0.6,0.6,1.6,1,3s0.4,2.4,0.4,3
	C61.9,29.91,61.3,30.71,60.3,30.91z"></path>
    <linearGradient id="SVGID_1_" gradientUnits="userSpaceOnUse" x1="31.1403" y1="-41.3959" x2="63.7201" y2="-48.5453" gradientTransform="matrix(1 0 0 1 0 74)">
        <stop offset="0" style="stop-color:#202124"></stop>
        <stop offset="1" style="stop-color:#202124;stop-opacity:0"></stop>
    </linearGradient>
    <path fill="url(#SVGID_1_)" d="M60.3,30.91l-10.8,2.4l-2-9l10.8-2.4c0.8-0.2,1.8,0.2,2.2,1c0.4,0.6,0.6,1.6,1,3s0.4,2.4,0.4,3
	C61.9,29.91,61.3,30.71,60.3,30.91z"></path>
    <path fill="#8AB4F8" d="M33.1,57.51c0.2,2-1.2,4-3.4,4.4l0,0c-2,0.4-3.6-0.6-4-0.8l-4.2-18.8l10.6-2.4L33.1,57.51z"></path>
    <linearGradient id="SVGID_2_" gradientUnits="userSpaceOnUse" x1="29.4064" y1="-62.5236" x2="26.8982" y2="-16.2612" gradientTransform="matrix(1 0 0 1 0 74)">
        <stop offset="0" style="stop-color:#202124"></stop>
        <stop offset="1" style="stop-color:#202124;stop-opacity:0"></stop>
    </linearGradient>
    <path fill="url(#SVGID_2_)" d="M33.1,57.51c0.2,2-1.2,4-3.4,4.4l0,0c-2,0.4-3.6-0.6-4-0.8l-4.2-18.8l10.6-2.4L33.1,57.51z"></path>
    <linearGradient id="SVGID_3_" gradientUnits="userSpaceOnUse" x1="15.3472" y1="-107.2921" x2="39.1548" y2="-20.3717" gradientTransform="matrix(1 0 0 1 0 74)">
        <stop offset="0" style="stop-color:#FFFFFF"></stop>
        <stop offset="0.837" style="stop-color:#8AB4F8"></stop>
    </linearGradient>
    <path fill="url(#SVGID_3_)" d="M50.5,10.71L50.5,10.71C50.5,10.71,50.5,10.51,50.5,10.71C50.5,10.51,50.3,10.71,50.5,10.71
	C50.3,10.71,50.3,10.71,50.5,10.71c-1.8,1-4.8,2.2-6.6,3c-1,0.4-1.6,1.2-1.8,2.4c-1.4,0.8-2.8,1.4-3.8,2c-3.2,1.4-4.8,2-6.2,2.4
	c-2.6,0.8-5.8,1.4-6.6,1.6c-0.2,0-0.4,0-0.6,0.2c-3.4,0.8-6,3.4-7.2,6.6l-3.8,0.8c-2,0.4-3.4,2.6-2.8,4.6l1.4,6.4
	c0.4,2,2.6,3.4,4.6,3l3.6-0.8c2.4,2.4,5.8,3.6,9.2,3.2c0.2,0,0.4,0,0.6,0c2.2-0.6,4.6-1.2,7.4-1.6c1.8-0.2,3.2-0.4,6.4-0.6
	c1,0,2.2,0,3.6,0c0.4,0.8,1.4,1.4,2.4,1.4c2,0,5.2,0,7.4,0.2C55.1,33.71,52.7,22.11,50.5,10.71z"></path>
    <path fill="#FFFFFF" d="M47.9,43.91L42.1,16.1c-0.03,0.01-1.16,0.63-1.19,0.64l5.63,27.16C47,43.91,47.45,43.91,47.9,43.91z"></path>
</svg>